<svg width="150" height="150" viewBox="0 0 150 150" fill="none" xmlns="http://www.w3.org/2000/svg">
<path d="M34.368 78.2495C34.816 81.0655 35.552 83.2095 36.576 84.6815C37.664 86.1535 38.944 87.1135 40.416 87.5615C41.888 88.0095 43.488 88.0415 45.216 87.6575C46.944 87.2095 48.704 86.5055 50.496 85.5455C52.352 84.5855 54.144 83.4335 55.872 82.0895C57.664 80.7455 59.328 79.4015 60.864 78.0575C62.016 76.9695 63.328 76.4255 64.8 76.4255C66.336 76.4255 67.712 76.9695 68.928 78.0575C70.336 79.3375 70.72 80.9695 70.08 82.9535C69.504 84.9375 68.224 86.9535 66.24 89.0015C64.256 91.0495 61.76 92.9375 58.752 94.6655C55.744 96.3935 52.544 97.6415 49.152 98.4095C45.76 99.1775 42.368 99.3375 38.976 98.8895C35.584 98.4415 32.512 97.0015 29.76 94.5695C27.2 92.3295 25.408 89.5455 24.384 86.2175C23.424 82.8895 22.88 79.4015 22.752 75.7535C22.624 72.0415 22.784 68.3295 23.232 64.6175C23.744 60.9055 24.224 57.5775 24.672 54.6335C23.904 54.6975 23.104 54.7935 22.272 54.9215C21.504 54.9855 20.736 55.0495 19.968 55.1135C18.432 55.1775 17.12 54.6975 16.032 53.6735C15.008 52.6495 14.4 51.4655 14.208 50.1215C14.016 48.7775 14.336 47.4655 15.168 46.1855C16.064 44.9055 17.664 44.0735 19.968 43.6895C21.056 43.4975 22.144 43.3695 23.232 43.3055C24.32 43.2415 25.408 43.1455 26.496 43.0175C26.816 41.3535 27.136 39.6575 27.456 37.9295C27.776 36.2015 28.192 34.5375 28.704 32.9375C29.216 31.4015 30.144 30.3135 31.488 29.6735C32.832 28.9695 34.272 28.7775 35.808 29.0975C37.344 29.4815 38.368 30.1855 38.88 31.2095C39.456 32.1695 39.744 33.2895 39.744 34.5695C39.744 35.7855 39.552 37.0975 39.168 38.5055C38.848 39.8495 38.592 41.0335 38.4 42.0575C41.472 41.9295 44.576 41.7375 47.712 41.4815C50.912 41.2255 54.048 41.1935 57.12 41.3855C58.976 41.5135 60.384 42.1535 61.344 43.3055C62.304 44.4575 62.784 45.7375 62.784 47.1455C62.848 48.4895 62.4 49.7375 61.44 50.8895C60.544 52.0415 59.104 52.7135 57.12 52.9055C53.664 53.2255 50.176 53.3855 46.656 53.3855C43.136 53.3855 39.648 53.4815 36.192 53.6735C36.064 55.4655 35.84 57.3855 35.52 59.4335C35.2 61.4815 34.912 63.5615 34.656 65.6735C34.4 67.7855 34.208 69.9295 34.08 72.1055C33.952 74.2175 34.048 76.2655 34.368 78.2495ZM97.2743 78.2495C97.7223 81.0655 98.4583 83.2095 99.4823 84.6815C100.57 86.1535 101.85 87.1135 103.322 87.5615C104.794 88.0095 106.394 88.0415 108.122 87.6575C109.85 87.2095 111.61 86.5055 113.402 85.5455C115.258 84.5855 117.05 83.4335 118.778 82.0895C120.57 80.7455 122.234 79.4015 123.77 78.0575C124.922 76.9695 126.234 76.4255 127.706 76.4255C129.242 76.4255 130.618 76.9695 131.834 78.0575C133.242 79.3375 133.626 80.9695 132.986 82.9535C132.41 84.9375 131.13 86.9535 129.146 89.0015C127.162 91.0495 124.666 92.9375 121.658 94.6655C118.65 96.3935 115.45 97.6415 112.058 98.4095C108.666 99.1775 105.274 99.3375 101.882 98.8895C98.4903 98.4415 95.4183 97.0015 92.6663 94.5695C90.1063 92.3295 88.3143 89.5455 87.2903 86.2175C86.3303 82.8895 85.7863 79.4015 85.6583 75.7535C85.5303 72.0415 85.6903 68.3295 86.1383 64.6175C86.6503 60.9055 87.1302 57.5775 87.5782 54.6335C86.8103 54.6975 86.0103 54.7935 85.1783 54.9215C84.4103 54.9855 83.6423 55.0495 82.8743 55.1135C81.3383 55.1775 80.0263 54.6975 78.9383 53.6735C77.9143 52.6495 77.3063 51.4655 77.1143 50.1215C76.9223 48.7775 77.2423 47.4655 78.0742 46.1855C78.9703 44.9055 80.5703 44.0735 82.8743 43.6895C83.9623 43.4975 85.0503 43.3695 86.1383 43.3055C87.2263 43.2415 88.3143 43.1455 89.4023 43.0175C89.7223 41.3535 90.0423 39.6575 90.3623 37.9295C90.6823 36.2015 91.0983 34.5375 91.6103 32.9375C92.1223 31.4015 93.0503 30.3135 94.3943 29.6735C95.7383 28.9695 97.1783 28.7775 98.7143 29.0975C100.25 29.4815 101.274 30.1855 101.786 31.2095C102.362 32.1695 102.65 33.2895 102.65 34.5695C102.65 35.7855 102.458 37.0975 102.074 38.5055C101.754 39.8495 101.498 41.0335 101.306 42.0575C104.378 41.9295 107.482 41.7375 110.618 41.4815C113.818 41.2255 116.954 41.1935 120.026 41.3855C121.882 41.5135 123.29 42.1535 124.25 43.3055C125.21 44.4575 125.69 45.7375 125.69 47.1455C125.754 48.4895 125.306 49.7375 124.346 50.8895C123.45 52.0415 122.01 52.7135 120.026 52.9055C116.57 53.2255 113.082 53.3855 109.562 53.3855C106.042 53.3855 102.554 53.4815 99.0983 53.6735C98.9703 55.4655 98.7463 57.3855 98.4263 59.4335C98.1063 61.4815 97.8183 63.5615 97.5623 65.6735C97.3063 67.7855 97.1143 69.9295 96.9863 72.1055C96.8583 74.2175 96.9543 76.2655 97.2743 78.2495Z" fill="black"/>
<path d="M60 118.731C66 120.845 70 122.845 75.3958 121.981C82.2637 120.881 86 114.845 91 108.481" stroke="black" stroke-width="11" stroke-linecap="round"/>
<path d="M45.5 62.3455C49.5 63.8455 52.5 66.3455 48 74.8455" stroke="black" stroke-width="11" stroke-linecap="round"/>
<path d="M107 64.3455C111 65.8455 114 68.3455 109.5 76.8455" stroke="black" stroke-width="11" stroke-linecap="round"/>
</svg>
